<mxfile host="app.diagrams.net" agent="Mozilla/5.0 (Windows NT 10.0; Win64; x64) AppleWebKit/537.36 (KHTML, like Gecko) Chrome/129.0.0.0 Safari/537.36" version="24.7.16">
  <diagram name="Page-1" id="c7558073-3199-34d8-9f00-42111426c3f3">
    <mxGraphModel dx="875" dy="442" grid="1" gridSize="10" guides="1" tooltips="1" connect="1" arrows="1" fold="1" page="1" pageScale="1" pageWidth="826" pageHeight="1169" background="none" math="0" shadow="0">
      <root>
        <mxCell id="0" />
        <mxCell id="1" parent="0" />
        <mxCell id="UN_XIaxyN10X3Z1a8Tkm-105" style="edgeStyle=orthogonalEdgeStyle;rounded=0;orthogonalLoop=1;jettySize=auto;html=1;entryX=0.5;entryY=0;entryDx=0;entryDy=0;" parent="1" source="UN_XIaxyN10X3Z1a8Tkm-97" target="UN_XIaxyN10X3Z1a8Tkm-103" edge="1">
          <mxGeometry relative="1" as="geometry" />
        </mxCell>
        <mxCell id="UN_XIaxyN10X3Z1a8Tkm-97" value="&lt;p style=&quot;margin: 0px; margin-top: 4px; text-align: center; text-decoration: underline;&quot;&gt;&lt;strong&gt;Микроконтроллер&lt;/strong&gt;&lt;/p&gt;&lt;hr&gt;&lt;p style=&quot;margin: 0px; margin-left: 8px;&quot;&gt;Контроллер привода&lt;/p&gt;&lt;p style=&quot;margin: 0px; margin-left: 8px;&quot;&gt;и модулей навигации&lt;br&gt;STM32&lt;/p&gt;" style="verticalAlign=middle;align=center;overflow=fill;fontSize=12;fontFamily=Helvetica;html=1;rounded=1;fontStyle=1;strokeWidth=3;fillColor=#E6FFCC" parent="1" vertex="1">
          <mxGeometry x="350" y="376" width="160" height="90" as="geometry" />
        </mxCell>
        <mxCell id="UN_XIaxyN10X3Z1a8Tkm-113" value="" style="edgeStyle=orthogonalEdgeStyle;rounded=0;orthogonalLoop=1;jettySize=auto;html=1;" parent="1" source="UN_XIaxyN10X3Z1a8Tkm-102" target="UN_XIaxyN10X3Z1a8Tkm-109" edge="1">
          <mxGeometry relative="1" as="geometry" />
        </mxCell>
        <mxCell id="UN_XIaxyN10X3Z1a8Tkm-102" value="Двигатель 1 оси" style="whiteSpace=wrap;align=center;verticalAlign=middle;fontStyle=1;strokeWidth=3;fillColor=#FFFFCC" parent="1" vertex="1">
          <mxGeometry x="459.9999999999999" y="620" width="90" height="60" as="geometry" />
        </mxCell>
        <mxCell id="UN_XIaxyN10X3Z1a8Tkm-107" style="edgeStyle=orthogonalEdgeStyle;rounded=1;orthogonalLoop=1;jettySize=auto;html=1;exitX=0.75;exitY=1;exitDx=0;exitDy=0;entryX=0.5;entryY=0;entryDx=0;entryDy=0;curved=0;" parent="1" source="UN_XIaxyN10X3Z1a8Tkm-103" target="UN_XIaxyN10X3Z1a8Tkm-102" edge="1">
          <mxGeometry relative="1" as="geometry" />
        </mxCell>
        <mxCell id="UN_XIaxyN10X3Z1a8Tkm-108" style="edgeStyle=orthogonalEdgeStyle;rounded=1;orthogonalLoop=1;jettySize=auto;html=1;exitX=0.25;exitY=1;exitDx=0;exitDy=0;curved=0;" parent="1" source="UN_XIaxyN10X3Z1a8Tkm-103" target="UN_XIaxyN10X3Z1a8Tkm-106" edge="1">
          <mxGeometry relative="1" as="geometry" />
        </mxCell>
        <mxCell id="UN_XIaxyN10X3Z1a8Tkm-103" value="&lt;p style=&quot;margin: 0px; margin-top: 4px; text-align: center; text-decoration: underline;&quot;&gt;Драйвер двигателей&lt;/p&gt;&lt;hr&gt;&lt;p style=&quot;margin: 0px; margin-left: 8px;&quot;&gt;Драйвер управления&lt;/p&gt;&lt;p style=&quot;margin: 0px; margin-left: 8px;&quot;&gt;двигателями привода&lt;/p&gt;" style="verticalAlign=middle;align=center;overflow=fill;fontSize=12;fontFamily=Helvetica;html=1;rounded=1;fontStyle=1;strokeWidth=3;fillColor=#E6FFCC" parent="1" vertex="1">
          <mxGeometry x="350" y="490" width="160" height="90" as="geometry" />
        </mxCell>
        <mxCell id="UN_XIaxyN10X3Z1a8Tkm-112" value="" style="edgeStyle=orthogonalEdgeStyle;rounded=0;orthogonalLoop=1;jettySize=auto;html=1;" parent="1" source="UN_XIaxyN10X3Z1a8Tkm-106" target="UN_XIaxyN10X3Z1a8Tkm-111" edge="1">
          <mxGeometry relative="1" as="geometry" />
        </mxCell>
        <mxCell id="UN_XIaxyN10X3Z1a8Tkm-106" value="Двигатель 2 оси" style="whiteSpace=wrap;align=center;verticalAlign=middle;fontStyle=1;strokeWidth=3;fillColor=#FFFFCC" parent="1" vertex="1">
          <mxGeometry x="309.9999999999999" y="620" width="90" height="60" as="geometry" />
        </mxCell>
        <mxCell id="UN_XIaxyN10X3Z1a8Tkm-114" style="edgeStyle=orthogonalEdgeStyle;rounded=1;orthogonalLoop=1;jettySize=auto;html=1;entryX=0.998;entryY=0.785;entryDx=0;entryDy=0;entryPerimeter=0;curved=0;" parent="1" source="UN_XIaxyN10X3Z1a8Tkm-109" target="UN_XIaxyN10X3Z1a8Tkm-97" edge="1">
          <mxGeometry relative="1" as="geometry">
            <Array as="points">
              <mxPoint x="630" y="447" />
              <mxPoint x="510" y="447" />
            </Array>
          </mxGeometry>
        </mxCell>
        <mxCell id="UN_XIaxyN10X3Z1a8Tkm-109" value="Потенциометр обратная связь" style="whiteSpace=wrap;align=center;verticalAlign=middle;fontStyle=1;strokeWidth=3;fillColor=#FFFFCC" parent="1" vertex="1">
          <mxGeometry x="580" y="620" width="100" height="60" as="geometry" />
        </mxCell>
        <mxCell id="UN_XIaxyN10X3Z1a8Tkm-115" style="edgeStyle=orthogonalEdgeStyle;rounded=1;orthogonalLoop=1;jettySize=auto;html=1;curved=0;" parent="1" source="UN_XIaxyN10X3Z1a8Tkm-111" edge="1">
          <mxGeometry relative="1" as="geometry">
            <mxPoint x="350" y="450" as="targetPoint" />
            <Array as="points">
              <mxPoint x="230" y="450" />
              <mxPoint x="350" y="450" />
            </Array>
          </mxGeometry>
        </mxCell>
        <mxCell id="UN_XIaxyN10X3Z1a8Tkm-111" value="Потенциометр обратная связь" style="whiteSpace=wrap;align=center;verticalAlign=middle;fontStyle=1;strokeWidth=3;fillColor=#FFFFCC" parent="1" vertex="1">
          <mxGeometry x="180" y="620" width="100" height="60" as="geometry" />
        </mxCell>
        <mxCell id="UN_XIaxyN10X3Z1a8Tkm-124" style="edgeStyle=orthogonalEdgeStyle;rounded=0;orthogonalLoop=1;jettySize=auto;html=1;exitX=1;exitY=0.75;exitDx=0;exitDy=0;entryX=0;entryY=0.5;entryDx=0;entryDy=0;" parent="1" source="UN_XIaxyN10X3Z1a8Tkm-116" target="UN_XIaxyN10X3Z1a8Tkm-97" edge="1">
          <mxGeometry relative="1" as="geometry" />
        </mxCell>
        <mxCell id="UN_XIaxyN10X3Z1a8Tkm-116" value="GPS модуль" style="whiteSpace=wrap;align=center;verticalAlign=middle;fontStyle=1;strokeWidth=3;fillColor=#FFFFCC" parent="1" vertex="1">
          <mxGeometry x="179.9999999999999" y="376" width="90" height="60" as="geometry" />
        </mxCell>
        <mxCell id="UN_XIaxyN10X3Z1a8Tkm-122" style="edgeStyle=orthogonalEdgeStyle;rounded=0;orthogonalLoop=1;jettySize=auto;html=1;entryX=1;entryY=0.5;entryDx=0;entryDy=0;" parent="1" source="UN_XIaxyN10X3Z1a8Tkm-117" target="UN_XIaxyN10X3Z1a8Tkm-97" edge="1">
          <mxGeometry relative="1" as="geometry">
            <Array as="points">
              <mxPoint x="675" y="421" />
            </Array>
          </mxGeometry>
        </mxCell>
        <mxCell id="UN_XIaxyN10X3Z1a8Tkm-117" value="IMU модуль" style="whiteSpace=wrap;align=center;verticalAlign=middle;fontStyle=1;strokeWidth=3;fillColor=#FFFFCC" parent="1" vertex="1">
          <mxGeometry x="589.9999999999999" y="376" width="90" height="60" as="geometry" />
        </mxCell>
        <mxCell id="UN_XIaxyN10X3Z1a8Tkm-127" value="Направленная&#xa;Антенна" style="whiteSpace=wrap;align=center;verticalAlign=middle;fontStyle=1;strokeWidth=3;fillColor=#FFFFCC" parent="1" vertex="1">
          <mxGeometry x="382.5" y="720" width="95" height="60" as="geometry" />
        </mxCell>
        <mxCell id="UN_XIaxyN10X3Z1a8Tkm-132" value="SPI" style="text;spacingTop=-5;align=center" parent="1" vertex="1">
          <mxGeometry x="540.0000000000001" y="396.0000000000001" width="30" height="20" as="geometry" />
        </mxCell>
        <mxCell id="UN_XIaxyN10X3Z1a8Tkm-133" value="UART" style="text;spacingTop=-5;align=center" parent="1" vertex="1">
          <mxGeometry x="290.0000000000001" y="396.0000000000001" width="30" height="20" as="geometry" />
        </mxCell>
        <mxCell id="gSOiPHyv-bpP9yXjdw-1-2" style="edgeStyle=orthogonalEdgeStyle;rounded=0;orthogonalLoop=1;jettySize=auto;html=1;entryX=0.5;entryY=0;entryDx=0;entryDy=0;" edge="1" parent="1" source="gSOiPHyv-bpP9yXjdw-1-1" target="UN_XIaxyN10X3Z1a8Tkm-97">
          <mxGeometry relative="1" as="geometry" />
        </mxCell>
        <mxCell id="gSOiPHyv-bpP9yXjdw-1-1" value="Внешний Порт управления" style="whiteSpace=wrap;align=center;verticalAlign=middle;fontStyle=1;strokeWidth=3;fillColor=#FFFFCC" vertex="1" parent="1">
          <mxGeometry x="382.5" y="260" width="95" height="60" as="geometry" />
        </mxCell>
        <mxCell id="UN_XIaxyN10X3Z1a8Tkm-129" value="SMA" style="text;spacingTop=-5;align=center" parent="1" vertex="1">
          <mxGeometry x="515.0000000000001" y="730.0000000000001" width="30" height="20" as="geometry" />
        </mxCell>
        <mxCell id="gSOiPHyv-bpP9yXjdw-1-8" value="Порт управления" style="whiteSpace=wrap;align=center;verticalAlign=middle;fontStyle=1;strokeWidth=3;fillColor=#FFFFCC" vertex="1" parent="1">
          <mxGeometry x="570" y="720" width="95" height="60" as="geometry" />
        </mxCell>
      </root>
    </mxGraphModel>
  </diagram>
</mxfile>
